<svg width="162" height="27" viewBox="0 0 162 27" fill="none" xmlns="http://www.w3.org/2000/svg">
<path d="M13.1172 26H0.707031V0.792969H12.3965C15.2324 0.792969 17.4707 1.44922 19.1113 2.76172C20.752 4.07422 21.5723 5.63867 21.5723 7.45508C21.5723 8.14648 21.4434 8.80859 21.1855 9.44141C20.9395 10.0625 20.6406 10.5605 20.2891 10.9355C19.9492 11.3105 19.6035 11.6445 19.252 11.9375C18.9121 12.2188 18.6191 12.418 18.373 12.5352L17.9863 12.6758C18.1035 12.7227 18.2734 12.793 18.4961 12.8867C18.7305 12.9688 19.123 13.1738 19.6738 13.502C20.2246 13.8184 20.7168 14.1875 21.1504 14.6094C21.584 15.0312 21.9707 15.623 22.3105 16.3848C22.6621 17.1348 22.8379 17.9375 22.8379 18.793C22.8379 20.7852 21.9707 22.4844 20.2363 23.8906C18.5137 25.2969 16.1406 26 13.1172 26ZM8.79297 19.8828H12.3965C13.0176 19.8828 13.5332 19.6895 13.9434 19.3027C14.3535 18.916 14.5586 18.4473 14.5586 17.8965C14.5586 17.3457 14.3535 16.8828 13.9434 16.5078C13.5332 16.1211 13.0176 15.9277 12.3965 15.9277H8.79297V19.8828ZM11.5 6.92773H8.79297V10.1621H11.5C12.0273 10.1621 12.4551 10.0098 12.7832 9.70508C13.123 9.38867 13.293 9.00195 13.293 8.54492C13.293 8.08789 13.123 7.70703 12.7832 7.40234C12.4551 7.08594 12.0273 6.92773 11.5 6.92773ZM21.2172 26V0.792969H29.3031V26H21.2172ZM42.0965 26.7207C38.0887 26.7207 34.7137 25.4141 31.9715 22.8008C29.241 20.1758 27.8758 17.041 27.8758 13.3965C27.8758 9.75195 29.241 6.62305 31.9715 4.00977C34.7137 1.38477 38.0887 0.0722656 42.0965 0.0722656C43.4676 0.0722656 44.7801 0.248047 46.034 0.599609C47.2879 0.951172 48.325 1.37305 49.1453 1.86523C49.9656 2.35742 50.6863 2.84961 51.3074 3.3418C51.9285 3.83398 52.3855 4.25586 52.6785 4.60742L53.0652 5.11719L48.2137 10.1621C48.1434 10.0918 48.0438 9.99219 47.9148 9.86328C47.7977 9.72266 47.5398 9.48828 47.1414 9.16016C46.7547 8.82031 46.3445 8.52734 45.9109 8.28125C45.4773 8.02344 44.9266 7.79492 44.2586 7.5957C43.6023 7.38477 42.9402 7.2793 42.2723 7.2793C40.4676 7.2793 38.9617 7.87109 37.7547 9.05469C36.5594 10.2266 35.9617 11.6738 35.9617 13.3965C35.9617 15.0957 36.5535 16.543 37.7371 17.7383C38.9324 18.9219 40.3855 19.5137 42.0965 19.5137C42.7879 19.5137 43.4148 19.4258 43.9773 19.25C44.5398 19.0742 44.9441 18.8984 45.1902 18.7227L45.5066 18.4414V16.2793H41.9031V11.7793H53.6102V21.6758C53.493 21.8164 53.323 22.0039 53.1004 22.2383C52.8895 22.4609 52.4148 22.8652 51.6766 23.4512C50.95 24.0254 50.1707 24.5352 49.3387 24.9805C48.5184 25.4258 47.4461 25.8242 46.1219 26.1758C44.8094 26.5391 43.4676 26.7207 42.0965 26.7207Z" fill="white"/>
<path d="M69.7855 18.0723C69.7855 17.7324 69.5805 17.4395 69.1703 17.1934C68.7602 16.9473 68.2328 16.7188 67.5883 16.5078C66.9555 16.2852 66.2406 16.0508 65.4437 15.8047C64.6586 15.5469 63.8734 15.2129 63.0883 14.8027C62.3148 14.3926 61.6117 13.918 60.9789 13.3789C60.3461 12.8398 59.8246 12.1133 59.4145 11.1992C59.0043 10.2852 58.7992 9.25391 58.7992 8.10547C58.7992 5.94922 59.7191 4.07422 61.559 2.48047C63.4105 0.875 65.848 0.0722656 68.8715 0.0722656C70.0668 0.0722656 71.2094 0.201172 72.2992 0.458984C73.4008 0.705078 74.2914 1.00391 74.9711 1.35547C75.6625 1.70703 76.266 2.05859 76.7816 2.41016C77.2973 2.75 77.6605 3.05469 77.8715 3.32422L78.2406 3.67578L73.5648 8.54492C73.4711 8.4043 73.3187 8.24023 73.1078 8.05273C72.9086 7.85352 72.4926 7.58398 71.8598 7.24414C71.2387 6.9043 70.6059 6.73438 69.9613 6.73438C69.2699 6.73438 68.7367 6.88672 68.3617 7.19141C67.9867 7.49609 67.7992 7.88281 67.7992 8.35156C67.7992 8.73828 68.0687 9.08398 68.6078 9.38867C69.1469 9.68164 69.8207 9.92773 70.6293 10.127C71.4496 10.3145 72.3344 10.6133 73.2836 11.0234C74.2328 11.4336 75.1117 11.8965 75.9203 12.4121C76.7406 12.9277 77.4203 13.6953 77.9594 14.7148C78.5102 15.7344 78.7855 16.918 78.7855 18.2656C78.7855 20.5977 77.8422 22.5898 75.9555 24.2422C74.0687 25.8945 71.5316 26.7207 68.3441 26.7207C67.0668 26.7207 65.8246 26.5684 64.6176 26.2637C63.4223 25.9707 62.4203 25.6133 61.6117 25.1914C60.8148 24.7695 60.1117 24.3477 59.5023 23.9258C58.893 23.5039 58.4418 23.1406 58.1488 22.8359L57.7094 22.3965L62.4027 17.7207C62.5668 17.8848 62.7895 18.1016 63.0707 18.3711C63.3637 18.6289 63.9379 18.9746 64.7934 19.4082C65.6488 19.8418 66.4691 20.0586 67.2543 20.0586C68.0512 20.0586 68.6723 19.8652 69.1176 19.4785C69.5629 19.0918 69.7855 18.623 69.7855 18.0723ZM100.913 0.792969V26H92.8094V16.8242H85.2508V26H77.1648V0.792969H85.2508V9.61719H92.8094V0.792969H100.913ZM109.329 9.07227C108.146 10.2559 107.554 11.7031 107.554 13.4141C107.554 15.1133 108.146 16.5547 109.329 17.7383C110.525 18.9219 111.972 19.5137 113.671 19.5137C115.382 19.5137 116.829 18.9219 118.013 17.7383C119.208 16.5547 119.806 15.1133 119.806 13.4141C119.806 11.7031 119.208 10.2559 118.013 9.07227C116.829 7.87695 115.382 7.2793 113.671 7.2793C111.972 7.2793 110.525 7.87695 109.329 9.07227ZM123.796 4.00977C126.538 6.62305 127.909 9.75195 127.909 13.3965C127.909 17.041 126.538 20.1758 123.796 22.8008C121.066 25.4141 117.696 26.7207 113.689 26.7207C109.681 26.7207 106.306 25.4141 103.564 22.8008C100.833 20.1758 99.468 17.041 99.468 13.3965C99.468 9.75195 100.833 6.62305 103.564 4.00977C106.306 1.38477 109.681 0.0722656 113.689 0.0722656C117.696 0.0722656 121.066 1.38477 123.796 4.00977ZM146.609 26L142.478 13.3965L138.33 26H131.316L123.037 0.792969H131.685L135.464 14.293L139.244 0.792969H145.713L149.492 14.293L153.271 0.792969H161.92L153.64 26H146.609Z" fill="#FA5000"/>
</svg>
