<svg width="24" height="24" viewBox="0 0 24 24" fill="none" xmlns="http://www.w3.org/2000/svg">
<path d="M11.7051 10.6439C10.9264 10.6439 10.2536 10.9359 9.68652 11.5199C9.11947 12.0954 8.83594 12.8021 8.83594 13.64C8.83594 14.4694 9.11523 15.1761 9.67383 15.7601C10.2409 16.3357 10.918 16.6234 11.7051 16.6234C12.4329 16.6234 13.0465 16.3483 13.5459 15.7982C14.0452 15.2396 14.2949 14.5202 14.2949 13.64C14.2949 12.7513 14.0452 12.0319 13.5459 11.4818C13.0465 10.9232 12.4329 10.6439 11.7051 10.6439ZM11.4385 8.8158C12.014 8.8158 12.5387 8.91313 13.0127 9.10779C13.4867 9.29399 13.821 9.49288 14.0156 9.70447L14.2949 9.99646V8.95544H16.123V15.0619C16.123 15.5105 16.2585 15.8829 16.5293 16.1791C16.8086 16.4753 17.1471 16.6234 17.5449 16.6234C18.1882 16.6234 18.7171 16.323 19.1318 15.722C19.5465 15.1211 19.7539 14.2071 19.7539 12.9799C19.7539 10.8809 18.9964 9.09932 17.4814 7.63513C15.9665 6.17094 14.0833 5.43884 11.832 5.43884C9.68229 5.43884 7.82031 6.23442 6.24609 7.82556C4.68034 9.40824 3.89746 11.2998 3.89746 13.5004C3.89746 15.7009 4.68034 17.5967 6.24609 19.1879C7.82031 20.7705 9.68229 21.5619 11.832 21.5619C12.7122 21.5619 13.5417 21.4222 14.3203 21.1429C15.1074 20.8636 15.6745 20.5886 16.0215 20.3177L16.5039 19.8734L17.6846 21.2953C17.6338 21.3461 17.5492 21.418 17.4307 21.5111C17.3206 21.6127 17.0794 21.7819 16.707 22.0189C16.3346 22.2644 15.9411 22.476 15.5264 22.6537C15.1117 22.8399 14.57 23.0049 13.9014 23.1488C13.2327 23.3011 12.543 23.3773 11.832 23.3773C9.10677 23.3773 6.75391 22.3955 4.77344 20.432C2.80143 18.4769 1.81543 16.1664 1.81543 13.5004C1.81543 10.8344 2.80143 8.5238 4.77344 6.56873C6.75391 4.60518 9.10677 3.62341 11.832 3.62341C14.6589 3.62341 17.0329 4.54171 18.9541 6.3783C20.8753 8.21488 21.8359 10.4154 21.8359 12.9799C21.8359 14.7487 21.4424 16.1029 20.6553 17.0424C19.8682 17.9733 18.8314 18.4388 17.5449 18.4388C16.9694 18.4388 16.4447 18.3119 15.9707 18.058C15.4967 17.7956 15.1667 17.5332 14.9805 17.2709L14.6885 16.8773C14.6208 16.9958 14.5107 17.1439 14.3584 17.3217C14.2145 17.4994 13.8633 17.7321 13.3047 18.0199C12.7546 18.2992 12.1325 18.4388 11.4385 18.4388C10.1943 18.4388 9.1237 17.9776 8.22656 17.0551C7.33789 16.1241 6.89355 14.9815 6.89355 13.6273C6.89355 12.2732 7.33789 11.1348 8.22656 10.2123C9.1237 9.28129 10.1943 8.8158 11.4385 8.8158Z" fill="white"/>
</svg>
