<svg width="512" height="512" viewBox="0 0 512 512" fill="none" xmlns="http://www.w3.org/2000/svg">
<g clip-path="url(#clip0)">
<path d="M167.583 228.326C129.44 228.326 98.4082 197.294 98.4082 159.151C98.4082 121.008 129.44 89.9758 167.583 89.9758C205.727 89.9758 236.759 121.008 236.759 159.151C236.759 197.294 205.727 228.326 167.583 228.326ZM167.583 104.976C137.711 104.976 113.409 129.279 113.409 159.151C113.409 189.023 137.711 213.326 167.583 213.326C197.455 213.326 221.758 189.023 221.758 159.151C221.758 129.279 197.455 104.976 167.583 104.976Z" fill="white"/>
<path d="M167.582 318.296C159.249 318.296 150.918 316.977 142.643 314.338C134.783 311.825 129.012 304.854 127.935 296.579C127.048 289.723 126.353 282.706 125.871 275.719C125.702 273.262 124.154 271.131 121.824 270.132C121.734 270.098 121.645 270.064 121.556 270.027C119.177 269.04 116.535 269.442 114.66 271.074C109.489 275.582 104.036 280.051 98.4529 284.359C91.8277 289.459 82.8124 290.303 75.4792 286.515C60.0457 278.552 48.1803 266.686 40.2151 251.249C36.428 243.89 37.283 234.875 42.3892 228.279C46.5333 222.885 51.0054 217.429 55.6666 212.081C57.2886 210.22 57.6966 207.601 56.7376 205.233C56.6916 205.129 56.6486 205.028 56.6116 204.936C55.6546 202.621 53.5075 201.038 51.0364 200.872C44.1512 200.397 37.134 199.699 30.1668 198.797C21.9025 197.737 14.9243 191.969 12.3982 184.102C7.11206 167.542 7.11206 150.764 12.3942 134.216C14.9213 126.347 21.8945 120.575 30.1628 119.499C37.031 118.61 44.0482 117.916 51.0244 117.434C53.5045 117.263 55.6576 115.679 56.6406 113.301C56.6556 113.265 56.6696 113.23 56.6846 113.195C56.6946 113.17 56.7056 113.145 56.7156 113.12C57.7036 110.741 57.3016 108.098 55.6676 106.223C51.0084 100.877 46.5353 95.421 42.3742 90.0048C37.286 83.4116 36.434 74.4023 40.2111 67.0621C47.3123 53.3096 57.5076 42.3783 70.519 34.5631C74.0702 32.43 78.6783 33.58 80.8104 37.1301C82.9434 40.6813 81.7934 45.2884 78.2433 47.4215C67.654 53.7817 59.3447 62.7019 53.5445 73.9343C52.4225 76.1144 52.7015 78.8334 54.2585 80.8515C58.2417 86.0357 62.5168 91.2508 66.9749 96.365C72.3801 102.568 73.7571 111.191 70.567 118.871C70.554 118.903 70.541 118.934 70.528 118.965C70.519 118.986 70.51 119.008 70.502 119.029C67.3279 126.706 60.2607 131.828 52.0575 132.396C45.3763 132.857 38.66 133.522 32.0918 134.372C29.5618 134.701 27.4357 136.435 26.6797 138.787C22.3065 152.486 22.3065 165.814 26.6837 179.525C27.4347 181.864 29.5558 183.592 32.0828 183.917C38.7641 184.782 45.4803 185.45 52.0555 185.904C60.2187 186.453 67.2699 191.541 70.467 199.19C70.516 199.299 70.56 199.403 70.599 199.499C73.7581 207.103 72.3811 215.731 66.9739 221.935C62.5148 227.051 58.2397 232.267 54.2665 237.437C52.6955 239.467 52.4195 242.184 53.5485 244.377C60.1437 257.16 69.57 266.585 82.3594 273.184C84.5485 274.315 87.2686 274.038 89.2956 272.476C94.6368 268.354 99.857 264.076 104.804 259.765C110.958 254.401 119.498 253.004 127.134 256.1C127.211 256.129 127.286 256.159 127.361 256.188C135.141 259.396 140.269 266.469 140.835 274.684C141.297 281.374 141.962 288.091 142.811 294.647C143.14 297.176 144.866 299.297 147.207 300.046C160.917 304.419 174.251 304.42 187.965 300.045C190.301 299.298 192.027 297.177 192.357 294.643C193.206 288.091 193.87 281.374 194.333 274.684C194.9 266.47 200.028 259.397 207.716 256.226C207.829 256.181 207.93 256.141 208.027 256.104C215.665 253.004 224.208 254.399 230.364 259.766C235.309 264.076 240.529 268.354 245.879 272.482C247.9 274.038 250.621 274.316 252.805 273.187C265.597 266.585 275.023 257.16 281.623 244.371C282.748 242.185 282.472 239.469 280.916 237.459C276.923 232.264 272.647 227.048 268.193 221.937C262.786 215.734 261.409 207.106 264.6 199.422C264.628 199.356 264.679 199.238 264.717 199.152C267.96 191.496 274.985 186.452 283.124 185.905C289.686 185.452 296.402 184.783 303.075 183.92C305.611 183.595 307.732 181.866 308.487 179.516C312.861 165.817 312.861 152.488 308.484 138.777C307.733 136.437 305.606 134.703 303.071 134.374C296.508 133.524 289.792 132.86 283.112 132.399C274.906 131.831 267.84 126.709 264.666 119.031C264.666 119.03 264.666 119.029 264.665 119.028C264.627 118.941 264.591 118.854 264.556 118.765C261.424 111.111 262.813 102.54 268.194 96.368C272.648 91.2578 276.923 86.0427 280.902 80.8655C282.472 78.8354 282.748 76.1194 281.62 73.9273C275.024 61.1449 265.598 51.7186 252.809 45.1194C250.621 43.9884 247.899 44.2674 245.872 45.8274C240.529 49.9495 235.309 54.2277 230.364 58.5378C224.207 63.905 215.663 65.301 208.024 62.1979C207.83 62.1239 207.641 62.0449 207.456 61.9579C199.913 58.7358 194.893 51.7336 194.333 43.6193C193.871 36.9291 193.207 30.2119 192.357 23.6557C192.028 21.1256 190.302 19.0056 187.961 18.2566C174.249 13.8744 160.919 13.8734 147.207 18.2566C144.866 19.0056 143.14 21.1266 142.811 23.6607C141.963 30.2119 141.298 36.9291 140.835 43.6203C140.276 51.7336 135.256 58.7358 127.711 61.9589C127.527 62.0449 127.339 62.1239 127.145 62.1979C119.507 65.3 110.962 63.905 104.805 58.5378C102.206 56.2707 99.46 53.9557 96.6399 51.6536C93.4308 49.0345 92.9527 44.3094 95.5728 41.1003C98.1919 37.8922 102.916 37.4132 106.126 40.0332C109.072 42.4373 111.944 44.8594 114.664 47.2315C116.528 48.8555 119.155 49.2625 121.524 48.2905C121.593 48.2595 121.664 48.2285 121.734 48.2005C124.115 47.2185 125.701 45.0674 125.872 42.5873C126.355 35.5991 127.05 28.5819 127.936 21.7307C129.014 13.4504 134.785 6.48018 142.64 3.96911C159.193 -1.32206 175.977 -1.32206 192.53 3.96911C200.386 6.48118 206.157 13.4514 207.234 21.7267C208.122 28.5829 208.816 35.6001 209.299 42.5873C209.47 45.0684 211.056 47.2195 213.438 48.2015C213.509 48.2305 213.579 48.2605 213.648 48.2915C216.018 49.2615 218.644 48.8565 220.51 47.2305C225.679 42.7253 231.132 38.2552 236.716 33.946C243.342 28.8439 252.358 28.0009 259.691 31.79C275.124 39.7532 286.99 51.6196 294.955 67.0561C298.742 74.4153 297.887 83.4286 292.782 90.0258C288.632 95.426 284.16 100.883 279.504 106.224C277.87 108.099 277.468 110.741 278.457 113.121C278.459 113.126 278.461 113.131 278.463 113.136C278.497 113.214 278.529 113.291 278.56 113.37C279.555 115.71 281.69 117.265 284.148 117.435C291.124 117.916 298.14 118.611 305.003 119.499C313.278 120.576 320.25 126.348 322.773 134.205C328.059 150.764 328.059 167.543 322.777 184.09C320.248 191.968 313.27 197.737 304.995 198.798C298.037 199.699 291.019 200.397 284.147 200.872C281.663 201.039 279.517 202.622 278.532 205.004C278.51 205.058 278.473 205.143 278.439 205.219C277.48 207.646 277.895 210.236 279.503 212.081C284.16 217.424 288.633 222.881 292.797 228.3C297.886 234.877 298.741 243.891 294.959 251.242C286.99 266.685 275.124 278.552 259.688 286.516C252.357 290.302 243.341 289.458 236.723 284.364C231.132 280.049 225.68 275.58 220.51 271.073C218.635 269.439 215.993 269.039 213.615 270.026C213.52 270.066 213.425 270.103 213.329 270.138C211.032 271.107 209.47 273.249 209.299 275.717C208.816 282.705 208.122 289.721 207.235 296.573C206.158 304.852 200.387 311.823 192.531 314.335C184.252 316.975 175.915 318.296 167.582 318.296V318.296ZM213.12 270.211C213.116 270.212 213.112 270.214 213.107 270.215C213.112 270.213 213.116 270.212 213.12 270.211ZM122.046 270.21C122.051 270.211 122.056 270.213 122.061 270.215C122.056 270.213 122.051 270.211 122.046 270.21ZM214.411 48.6885C214.415 48.6915 214.42 48.6935 214.425 48.6965C214.421 48.6935 214.416 48.6915 214.411 48.6885ZM214.404 48.6835C214.405 48.6835 214.406 48.6845 214.407 48.6855C214.406 48.6845 214.405 48.6845 214.404 48.6835ZM120.784 48.6725C120.78 48.6745 120.775 48.6775 120.771 48.6805C120.775 48.6775 120.78 48.6745 120.784 48.6725ZM120.793 48.6665C120.791 48.6675 120.79 48.6685 120.788 48.6695C120.789 48.6685 120.791 48.6675 120.793 48.6665ZM213.107 48.0875C213.111 48.0885 213.113 48.0895 213.117 48.0915C213.114 48.0905 213.111 48.0895 213.107 48.0875ZM122.061 48.0875C122.058 48.0885 122.054 48.0895 122.051 48.0905C122.054 48.0905 122.057 48.0895 122.061 48.0875Z" fill="white"/>
<path d="M305.323 430.776C284.137 430.776 266.902 413.541 266.902 392.355C266.902 371.17 284.137 353.934 305.323 353.934C326.509 353.934 343.744 371.17 343.744 392.355C343.744 413.541 326.509 430.776 305.323 430.776ZM305.323 368.935C292.409 368.935 281.902 379.441 281.902 392.355C281.902 405.27 292.409 415.776 305.323 415.776C318.237 415.776 328.744 405.27 328.744 392.355C328.744 379.441 318.236 368.935 305.323 368.935Z" fill="white"/>
<path d="M305.324 512C298.962 512 292.601 510.991 286.284 508.972C279.756 506.888 274.957 501.104 274.06 494.239C273.407 489.185 272.891 483.96 272.525 478.698C272.45 477.597 271.745 476.65 270.684 476.214C270.658 476.203 270.631 476.192 270.605 476.181C270.58 476.171 270.556 476.161 270.531 476.151C269.462 475.705 268.286 475.877 267.461 476.597C263.537 480.015 259.473 483.347 255.386 486.498C249.913 490.729 242.425 491.432 236.32 488.285C224.526 482.197 215.47 473.137 209.399 461.354C206.254 455.269 206.953 447.783 211.184 442.291C214.385 438.139 217.714 434.076 221.08 430.211C221.802 429.384 221.97 428.209 221.526 427.136C221.516 427.112 221.505 427.088 221.496 427.064C221.49 427.048 221.483 427.033 221.476 427.017C221.032 425.945 220.081 425.233 218.995 425.159C213.832 424.8 208.607 424.281 203.454 423.615C196.582 422.735 190.788 417.939 188.7 411.398C184.663 398.766 184.663 385.956 188.7 373.322C190.784 366.794 196.571 361.995 203.443 361.097C208.667 360.422 213.897 359.906 218.999 359.561C220.071 359.485 221.027 358.771 221.474 357.7C221.497 357.641 221.521 357.583 221.546 357.525C221.964 356.468 221.786 355.312 221.077 354.496C217.718 350.64 214.389 346.577 211.186 342.424C206.95 336.942 206.248 329.453 209.402 323.35C215.473 311.569 224.53 302.511 236.32 296.436C242.426 293.288 249.913 293.992 255.393 298.228C259.435 301.335 263.503 304.666 267.463 308.118C268.264 308.815 269.4 308.999 270.447 308.603C270.539 308.562 270.645 308.519 270.761 308.473C271.78 308.014 272.452 307.088 272.523 306.034C272.891 300.746 273.407 295.518 274.058 290.481C274.958 283.605 279.757 277.822 286.284 275.737C298.918 271.699 311.729 271.699 324.361 275.737C330.899 277.825 335.695 283.614 336.578 290.485C337.242 295.625 337.762 300.854 338.121 306.022C338.194 307.086 338.866 308.013 339.884 308.473C340.001 308.518 340.106 308.562 340.198 308.603C341.245 308.997 342.382 308.814 343.186 308.114C347.122 304.685 351.182 301.356 355.251 298.221C360.739 293.992 368.225 293.29 374.326 296.435C386.114 302.51 395.172 311.568 401.247 323.356C404.398 329.452 403.696 336.942 399.455 342.43C396.255 346.579 392.926 350.642 389.565 354.499C388.849 355.322 388.676 356.499 389.116 357.568C389.125 357.589 389.134 357.61 389.142 357.63C389.151 357.651 389.16 357.672 389.169 357.694C389.615 358.768 390.573 359.484 391.67 359.562C396.75 359.905 401.98 360.421 407.191 361.095C414.073 361.994 419.86 366.793 421.944 373.323C425.462 384.323 425.917 395.495 423.298 406.528C422.34 410.558 418.295 413.048 414.267 412.093C410.237 411.136 407.746 407.093 408.702 403.063C410.71 394.606 410.368 386.372 407.655 377.888C407.33 376.87 406.389 376.118 405.258 375.971C400.358 375.338 395.434 374.852 390.634 374.528C383.807 374.045 377.945 369.797 375.311 363.439C375.302 363.418 375.293 363.397 375.285 363.376C375.277 363.355 375.268 363.335 375.259 363.314C372.624 356.951 373.77 349.8 378.25 344.65C381.418 341.014 384.556 337.184 387.579 333.262C388.273 332.365 388.403 331.179 387.915 330.236C383.229 321.144 376.537 314.451 367.452 309.769C366.502 309.28 365.306 309.409 364.406 310.103C360.573 313.056 356.747 316.193 353.033 319.428C347.88 323.911 340.725 325.057 334.358 322.422C334.329 322.41 334.299 322.397 334.27 322.385C334.259 322.38 334.248 322.376 334.237 322.371C327.866 319.732 323.618 313.862 323.154 307.052C322.815 302.188 322.325 297.256 321.698 292.402C321.553 291.28 320.806 290.349 319.794 290.026C310.056 286.913 300.588 286.914 290.848 290.026C289.831 290.351 289.079 291.289 288.931 292.416C288.32 297.148 287.833 302.081 287.486 307.063C287.023 313.862 282.777 319.732 276.404 322.372C276.392 322.377 276.381 322.381 276.37 322.386C276.341 322.398 276.312 322.41 276.283 322.423C269.916 325.058 262.762 323.913 257.611 319.431C253.877 316.178 250.049 313.043 246.233 310.109C245.327 309.409 244.139 309.28 243.189 309.769C234.104 314.451 227.411 321.144 222.729 330.228C222.238 331.179 222.368 332.364 223.057 333.256C226.082 337.18 229.221 341.01 232.389 344.647C236.869 349.797 238.016 356.945 235.386 363.305C235.356 363.382 235.324 363.458 235.291 363.535C232.637 369.84 226.799 374.047 220.032 374.526C215.209 374.852 210.285 375.338 205.374 375.972C204.253 376.118 203.312 376.87 202.988 377.886C199.875 387.626 199.875 397.094 202.988 406.832C203.312 407.846 204.245 408.593 205.366 408.736C210.236 409.365 215.164 409.855 220.024 410.194C226.823 410.657 232.694 414.904 235.334 421.276C235.343 421.298 235.352 421.319 235.361 421.341C235.369 421.36 235.377 421.378 235.384 421.396C238.024 427.77 236.875 434.926 232.385 440.069C229.218 443.703 226.081 447.534 223.063 451.447C222.373 452.343 222.24 453.532 222.727 454.474C227.412 463.564 234.106 470.261 243.196 474.954C244.14 475.44 245.329 475.312 246.218 474.624C250.076 471.649 253.906 468.509 257.609 465.283C262.716 460.84 269.776 459.676 276.093 462.219C276.287 462.292 276.455 462.364 276.589 462.425C282.861 465.091 287.03 470.913 287.489 477.671C287.834 482.627 288.321 487.555 288.934 492.308C289.08 493.423 289.831 494.36 290.847 494.684C300.588 497.799 310.056 497.798 319.793 494.684C320.808 494.36 321.555 493.43 321.698 492.314C322.327 487.446 322.817 482.517 323.155 477.657C323.614 470.911 327.784 465.09 334.055 462.424C334.189 462.363 334.356 462.292 334.551 462.219C340.865 459.674 347.928 460.838 353.031 465.28C356.718 468.492 360.548 471.634 364.415 474.624C365.305 475.31 366.5 475.441 367.453 474.952C376.538 470.262 383.232 463.564 387.912 454.482C388.402 453.533 388.269 452.344 387.578 451.445C384.559 447.531 381.422 443.701 378.254 440.063C373.769 434.927 372.62 427.771 375.26 421.396C375.264 421.386 375.268 421.375 375.273 421.365C375.299 421.302 375.325 421.239 375.353 421.175C378.012 414.86 383.855 410.655 390.631 410.194C390.661 410.192 390.69 410.19 390.72 410.188C390.911 410.174 391.104 410.167 391.311 410.167C395.453 410.167 398.811 413.525 398.811 417.667C398.811 421.688 395.646 424.97 391.672 425.158C391.658 425.159 391.644 425.16 391.63 425.161C390.552 425.243 389.61 425.952 389.17 427.016C389.167 427.024 389.163 427.032 389.16 427.039C389.139 427.089 389.119 427.139 389.097 427.189C388.68 428.247 388.855 429.397 389.559 430.204C392.929 434.073 396.258 438.136 399.459 442.288C403.692 447.783 404.392 455.268 401.243 461.362C395.175 473.137 386.118 482.197 374.33 488.283C368.225 491.428 360.738 490.728 355.25 486.5C351.143 483.326 347.085 479.996 343.182 476.595C342.358 475.879 341.181 475.708 340.114 476.152C340.089 476.162 340.064 476.173 340.039 476.183C340.013 476.194 339.987 476.205 339.961 476.216C338.9 476.653 338.194 477.6 338.121 478.689C337.761 483.854 337.242 489.079 336.576 494.231C335.696 501.097 330.9 506.887 324.358 508.976C318.045 510.99 311.684 512 305.324 512V512ZM339.022 476.51C339.017 476.511 339.012 476.512 339.007 476.514C339.012 476.512 339.017 476.51 339.022 476.51ZM271.625 476.51C271.63 476.511 271.635 476.512 271.64 476.514C271.635 476.512 271.63 476.51 271.625 476.51ZM271.615 476.507H271.618C271.617 476.508 271.616 476.507 271.615 476.507ZM339.031 476.507C339.03 476.507 339.03 476.507 339.029 476.507C339.029 476.508 339.03 476.508 339.031 476.507ZM270.183 475.985C270.186 475.987 270.189 475.988 270.192 475.99C270.189 475.988 270.186 475.987 270.183 475.985ZM340.466 475.984C340.464 475.984 340.463 475.985 340.461 475.986C340.463 475.985 340.464 475.984 340.466 475.984ZM389.223 357.83C389.223 357.83 389.224 357.83 389.223 357.83V357.83ZM335.233 322.703C335.238 322.704 335.243 322.705 335.248 322.707C335.244 322.706 335.238 322.704 335.233 322.703ZM275.413 322.703C275.408 322.704 275.403 322.705 275.398 322.707C275.403 322.706 275.408 322.704 275.413 322.703ZM335.219 322.699C335.223 322.7 335.227 322.701 335.232 322.702C335.227 322.701 335.223 322.7 335.219 322.699ZM275.428 322.699C275.424 322.7 275.42 322.701 275.416 322.702C275.42 322.701 275.424 322.7 275.428 322.699ZM335.206 322.696C335.208 322.696 335.211 322.697 335.213 322.698C335.211 322.697 335.208 322.696 335.206 322.696ZM333.875 322.2C333.877 322.201 333.879 322.202 333.881 322.203C333.88 322.202 333.877 322.201 333.875 322.2ZM276.774 322.199C276.772 322.199 276.77 322.2 276.769 322.201C276.77 322.2 276.772 322.199 276.774 322.199Z" fill="white"/>
<path d="M417.187 233.241C401.399 233.241 388.553 220.396 388.553 204.607C388.553 188.818 401.399 175.974 417.187 175.974C432.977 175.974 445.821 188.819 445.821 204.607C445.822 220.396 432.977 233.241 417.187 233.241ZM417.187 190.974C409.67 190.974 403.554 197.09 403.554 204.607C403.554 212.125 409.67 218.241 417.187 218.241C424.705 218.241 430.821 212.125 430.821 204.607C430.822 197.089 424.705 190.974 417.187 190.974Z" fill="white"/>
<path d="M417.187 290.986C412.487 290.986 407.788 290.24 403.121 288.749C397.704 287.019 393.73 282.228 392.995 276.543C392.528 272.937 392.163 269.265 391.91 265.63C389.164 268.018 386.31 270.356 383.427 272.58C378.886 276.08 372.688 276.657 367.636 274.051C358.927 269.559 352.234 262.866 347.742 254.157C345.136 249.105 345.713 242.907 349.213 238.366C351.437 235.482 353.774 232.629 356.162 229.883C352.526 229.63 348.856 229.265 345.249 228.798C339.565 228.063 334.773 224.089 333.043 218.673C330.062 209.34 330.062 199.873 333.043 190.54C334.773 185.124 339.565 181.15 345.25 180.415C348.864 179.948 352.535 179.582 356.162 179.33C353.776 176.586 351.439 173.732 349.214 170.846C345.714 166.306 345.137 160.108 347.743 155.055C352.235 146.346 358.928 139.652 367.637 135.161C372.687 132.554 378.886 133.132 383.427 136.632C386.309 138.854 389.162 141.191 391.91 143.582C392.163 139.945 392.528 136.275 392.995 132.668C393.73 126.984 397.704 122.193 403.121 120.463C412.454 117.48 421.92 117.48 431.255 120.463C436.67 122.193 440.644 126.984 441.38 132.669C441.847 136.283 442.213 139.953 442.465 143.581C445.211 141.192 448.064 138.855 450.948 136.632C455.488 133.132 461.685 132.554 466.739 135.161C475.447 139.652 482.14 146.346 486.632 155.055C489.238 160.107 488.66 166.305 485.161 170.845C482.937 173.73 480.6 176.584 478.213 179.329C481.84 179.581 485.51 179.947 489.124 180.414C494.81 181.149 499.601 185.123 501.331 190.539C504.313 199.872 504.313 209.339 501.331 218.673C499.601 224.089 494.81 228.063 489.124 228.798C485.519 229.265 481.848 229.63 478.212 229.883C480.602 232.631 482.939 235.485 485.161 238.366C488.661 242.907 489.238 249.105 486.632 254.157C482.141 262.865 475.448 269.558 466.739 274.051C461.685 276.658 455.487 276.08 450.948 272.58C448.061 270.353 445.208 268.016 442.465 265.63C442.213 269.257 441.847 272.928 441.38 276.543C440.645 282.228 436.671 287.019 431.255 288.749C426.587 290.241 421.888 290.986 417.187 290.986V290.986ZM407.859 274.516C414.133 276.485 420.241 276.485 426.516 274.516C426.945 271.18 427.28 267.794 427.51 264.451C427.899 258.808 431.414 253.95 436.684 251.774C442.025 249.56 447.944 250.51 452.205 254.223C454.732 256.424 457.362 258.581 460.024 260.637C465.855 257.592 470.173 253.274 473.217 247.444C471.166 244.787 469.009 242.156 466.803 239.625C463.089 235.36 462.138 229.441 464.324 224.176C466.531 218.833 471.388 215.319 477.031 214.93C480.383 214.7 483.769 214.365 487.095 213.936C489.065 207.661 489.065 201.554 487.095 195.278C483.761 194.849 480.375 194.514 477.031 194.284C471.388 193.895 466.531 190.381 464.354 185.111C462.138 179.773 463.089 173.853 466.803 169.589C469.006 167.06 471.163 164.43 473.217 161.77C470.173 155.94 465.855 151.622 460.024 148.578C457.364 150.631 454.733 152.788 452.205 154.992C447.943 158.705 442.022 159.655 436.758 157.471C431.415 155.264 427.9 150.407 427.511 144.764C427.281 141.419 426.947 138.034 426.517 134.699C420.243 132.729 414.136 132.729 407.86 134.699C407.431 138.027 407.097 141.411 406.866 144.764C406.477 150.407 402.963 155.264 397.692 157.441C397.68 157.446 397.582 157.486 397.57 157.491C392.353 159.656 386.435 158.705 382.171 154.992C379.64 152.787 377.009 150.629 374.352 148.578C368.522 151.622 364.203 155.941 361.158 161.77C363.213 164.432 365.37 167.062 367.573 169.589C371.286 173.852 372.236 179.771 370.052 185.036C367.845 190.38 362.986 193.894 357.343 194.283C353.999 194.513 350.614 194.847 347.279 195.277C345.31 201.552 345.31 207.66 347.279 213.935C350.607 214.364 353.992 214.698 357.343 214.929C362.986 215.318 367.845 218.832 370.021 224.102C370.026 224.114 370.066 224.212 370.071 224.224C372.236 229.441 371.285 235.36 367.572 239.624C365.367 242.154 363.21 244.784 361.157 247.443C364.202 253.273 368.521 257.591 374.351 260.636C377.01 258.583 379.64 256.426 382.17 254.222C386.433 250.508 392.351 249.558 397.617 251.743C402.962 253.95 406.476 258.808 406.865 264.451C407.096 267.802 407.431 271.188 407.859 274.516V274.516ZM487.041 214.107C487.041 214.108 487.041 214.108 487.04 214.109C487.041 214.108 487.041 214.108 487.041 214.107Z" fill="white"/>
<path d="M34.4292 373.069C29.588 373.069 24.8019 371.582 20.7978 368.758C15.4716 365.001 11.9065 359.144 11.0175 352.688L10.2034 346.778C9.31341 340.322 11.1615 333.718 15.2726 328.662C19.3847 323.605 25.4719 320.449 31.9741 320.003L57.9589 318.221C70.2983 317.377 81.2727 326.304 82.9597 338.55L83.2877 340.927C84.9748 353.173 76.8175 364.74 64.7181 367.262L39.2193 372.575C37.6343 372.906 36.0282 373.069 34.4292 373.069V373.069ZM59.574 333.167C59.379 333.167 59.182 333.173 58.985 333.187L33.0002 334.97C30.5941 335.135 28.432 336.256 26.911 338.127C25.3899 339.998 24.7339 342.343 25.0629 344.731L25.8769 350.641C26.2059 353.029 27.472 355.11 29.442 356.499C31.4121 357.889 33.7982 358.382 36.1583 357.891L61.657 352.578C66.0682 351.659 69.0423 347.441 68.4273 342.977L68.0992 340.6V340.599C67.5102 336.33 63.8251 333.167 59.574 333.167Z" fill="white"/>
<path d="M77.1074 451.262C76.4034 451.262 75.6973 451.23 74.9913 451.166C68.5011 450.576 62.4849 447.287 58.4858 442.14L54.8257 437.429C50.8266 432.282 49.1255 425.64 50.1585 419.205C51.1916 412.77 54.8847 406.993 60.2929 403.356L81.9055 388.819C92.1628 381.921 106.136 384.163 113.721 393.924L115.194 395.819C122.778 405.582 121.498 419.677 112.278 427.911L92.8529 445.262C88.5207 449.132 82.8776 451.262 77.1074 451.262ZM95.0629 399.811C93.4069 399.811 91.7388 400.286 90.2768 401.269L68.6641 415.805C66.6641 417.15 65.351 419.202 64.969 421.583C64.587 423.963 65.192 426.323 66.6711 428.227L70.3312 432.938C71.8102 434.843 73.9473 436.011 76.3484 436.23C78.7534 436.45 81.0625 435.684 82.8606 434.077L102.286 416.726C105.647 413.724 106.114 408.585 103.349 405.027L101.876 403.132C101.876 403.132 101.876 403.132 101.876 403.131C100.192 400.962 97.643 399.811 95.0629 399.811Z" fill="white"/>
<path d="M144.196 509.516C141.171 509.516 138.145 508.939 135.299 507.781L129.774 505.531C123.738 503.074 118.944 498.172 116.621 492.082C114.296 485.993 114.607 479.144 117.473 473.29L128.922 449.895C134.355 438.792 147.579 433.748 159.027 438.408L161.251 439.313C172.698 443.974 178.637 456.821 174.771 468.562L166.624 493.301C164.585 499.492 160.023 504.611 154.108 507.345C150.98 508.79 147.589 509.516 144.196 509.516V509.516ZM150.148 451.669C146.947 451.669 143.876 453.461 142.395 456.489L130.946 479.884C129.886 482.05 129.776 484.483 130.635 486.735C131.494 488.987 133.198 490.729 135.431 491.638L140.956 493.888C143.189 494.797 145.624 494.74 147.812 493.729C150.001 492.717 151.622 490.899 152.376 488.609L160.523 463.87C161.932 459.59 159.767 454.906 155.594 453.207L153.37 452.302C152.319 451.872 151.226 451.669 150.148 451.669V451.669Z" fill="white"/>
</g>
<defs>
<clipPath id="clip0">
<rect width="512" height="512" fill="white"/>
</clipPath>
</defs>
</svg>
