<svg width="20" height="20" viewBox="0 0 20 20" fill="none" xmlns="http://www.w3.org/2000/svg">
<path fill-rule="evenodd" clip-rule="evenodd" d="M13.0667 0H6.93333C1.33333 0 0 1.33333 0 6.93333V13.0667C0 18.6667 1.33333 20 6.93333 20H13.0667C18.6667 20 20 18.6667 20 13.0667V6.93333C20 1.33333 18.6667 0 13.0667 0ZM16.1458 14.2708H14.6875C14.1312 14.2708 13.9687 13.8271 12.9792 12.8385C12.1135 12.0042 11.7427 11.8958 11.5271 11.8958C11.2333 11.8958 11.1458 11.9792 11.1458 12.3958V13.7031C11.1458 14.0625 11.0312 14.2708 10.1042 14.2708C8.55937 14.2708 6.86146 13.3333 5.65625 11.6021C3.84896 9.06875 3.35417 7.15312 3.35417 6.76667C3.35417 6.55 3.4375 6.35417 3.85417 6.35417H5.3125C5.68542 6.35417 5.825 6.51771 5.96562 6.92083C6.67917 8.99896 7.88125 10.8146 8.37604 10.8146C8.56146 10.8146 8.64688 10.7292 8.64688 10.2583V8.11042C8.59271 7.12187 8.06771 7.04062 8.06771 6.68854C8.06771 6.525 8.20729 6.35313 8.43854 6.35313H10.7302C11.0396 6.35313 11.1469 6.51875 11.1469 6.88958V9.77917C11.1469 10.0885 11.2812 10.1958 11.374 10.1958C11.5594 10.1958 11.7135 10.0875 12.0542 9.74792C13.1052 8.57396 13.8469 6.76562 13.8469 6.76562C13.9375 6.55 14.1083 6.35417 14.4792 6.35417H15.9375C16.3781 6.35417 16.4708 6.58125 16.3781 6.89062C16.1927 7.74062 14.4156 10.2437 14.4156 10.2437C14.2615 10.4906 14.199 10.6146 14.4156 10.8927C14.5698 11.1094 15.0802 11.5417 15.4198 11.9438C16.0458 12.649 16.5187 13.2427 16.65 13.6531C16.7708 14.0625 16.5625 14.2708 16.1458 14.2708Z" fill="white"/>
</svg>
